<?xml version="1.0" standalone="no"?>
<!DOCTYPE svg PUBLIC "-//W3C//DTD SVG 20010904//EN"
 "http://www.w3.org/TR/2001/REC-SVG-20010904/DTD/svg10.dtd">
<svg version="1.0" xmlns="http://www.w3.org/2000/svg"
 width="1024.000000pt" height="1024.000000pt" viewBox="0 0 1024.000000 1024.000000"
 preserveAspectRatio="xMidYMid meet">

<g transform="translate(0.000000,1024.000000) scale(0.100000,-0.100000)"
fill="#000000" stroke="none">
<path d="M3694 9034 c-39 -27 -564 -457 -940 -770 -60 -51 -302 -252 -539
-449 -544 -453 -508 -418 -501 -475 3 -25 44 -133 92 -240 229 -518 625 -1442
622 -1452 -2 -5 -103 -42 -225 -82 -238 -79 -306 -113 -387 -193 -90 -89 -144
-190 -171 -317 -22 -109 -22 -1565 0 -1671 31 -144 130 -304 239 -384 87 -65
135 -84 571 -236 231 -81 497 -174 590 -207 94 -33 239 -83 323 -111 l152 -52
0 -171 0 -172 -96 -4 c-94 -4 -97 -5 -125 -36 -24 -26 -29 -41 -29 -82 0 -67
14 -100 50 -113 l30 -11 0 -336 c0 -365 1 -369 57 -405 31 -19 32 -22 33 -92
0 -63 -2 -73 -17 -73 -31 -1 -53 -26 -53 -58 0 -44 22 -52 149 -52 119 0 141
9 141 55 0 25 -33 55 -60 55 -12 0 -15 14 -15 75 0 55 4 75 13 75 27 0 62 48
62 85 l0 35 583 0 583 0 10 -42 c7 -32 17 -48 41 -63 31 -19 32 -22 33 -92 0
-67 -2 -73 -21 -73 -11 0 -29 -5 -40 -10 -26 -15 -26 -75 0 -90 12 -6 116 -10
268 -10 269 0 293 4 293 54 0 28 -34 61 -54 53 -12 -5 -15 9 -18 78 -3 80 -2
84 19 90 25 6 53 52 53 85 0 20 2 20 585 20 l585 0 0 -25 c0 -38 21 -74 52
-87 27 -12 28 -15 28 -85 0 -67 -2 -73 -21 -73 -39 0 -59 -19 -59 -55 0 -48
19 -55 145 -55 126 0 145 7 145 55 0 36 -20 55 -59 55 -19 0 -21 6 -21 70 l0
70 34 14 c67 28 66 22 66 408 0 330 1 348 18 348 10 0 29 11 41 24 19 20 24
37 25 90 1 59 -2 68 -27 93 -26 26 -34 28 -127 31 l-100 4 0 167 0 168 43 12
c23 7 112 38 197 68 244 87 609 215 934 329 165 58 330 121 366 140 168 88
293 246 340 430 19 73 20 113 20 823 0 433 -5 774 -10 814 -28 191 -142 364
-300 457 -70 41 -128 62 -455 165 -115 37 -298 95 -405 130 -107 35 -314 102
-460 148 -146 47 -381 123 -522 168 l-258 83 0 36 c1 38 24 167 32 175 3 3 25
-6 49 -19 74 -41 219 -96 314 -118 121 -29 361 -31 483 -5 160 35 354 118 469
201 l51 36 133 -81 c344 -211 401 -251 525 -370 47 -45 80 -69 95 -69 25 0
110 83 285 278 101 113 106 133 42 185 -53 43 -117 75 -233 117 -107 38 -264
116 -355 174 -90 59 -183 145 -171 160 5 6 23 44 40 84 136 323 125 700 -31
1007 -106 209 -283 389 -508 517 -71 40 -226 98 -325 121 -125 29 -393 31
-510 3 -196 -45 -352 -121 -530 -256 -44 -33 -163 -159 -213 -225 -28 -39 -69
-103 -90 -142 -29 -58 -42 -73 -59 -73 -13 0 -23 6 -23 13 0 6 -16 34 -36 60
-69 94 -195 123 -317 73 -58 -24 -59 -24 -90 -6 -39 23 -69 27 -123 17 -35 -7
-47 -5 -78 17 -146 99 -299 84 -417 -41 -59 -63 -78 -103 -86 -186 l-5 -62
-52 3 -52 4 -75 174 c-77 180 -85 191 -138 185 -14 -2 -104 -38 -200 -81 -97
-42 -270 -118 -386 -168 -115 -50 -284 -123 -375 -162 -91 -40 -210 -91 -265
-115 -156 -66 -448 -195 -468 -206 -11 -6 -21 -8 -23 -6 -4 4 139 124 581 487
116 94 296 243 400 329 105 86 272 223 372 304 172 139 203 173 191 206 -3 9
-227 277 -260 313 -24 24 -38 23 -84 -8z m24 -295 c153 -41 190 -55 180 -64
-7 -7 -64 -56 -127 -110 l-113 -97 -97 26 c-232 63 -291 82 -288 90 4 13 230
205 242 206 6 0 97 -23 203 -51z m3318 -253 c179 -36 347 -109 481 -208 260
-190 426 -505 440 -829 6 -137 -3 -207 -42 -343 -53 -184 -142 -332 -286 -477
-305 -305 -738 -401 -1146 -254 -56 20 -191 88 -222 111 -2 2 0 19 3 39 l7 35
42 -28 c160 -108 407 -172 601 -157 83 7 227 36 281 57 160 62 288 145 396
255 153 158 247 351 285 589 15 93 16 121 6 215 -32 283 -148 508 -356 691
-104 91 -178 135 -315 189 -231 91 -504 92 -732 4 -156 -60 -268 -134 -395
-260 -93 -93 -148 -166 -184 -248 l-21 -47 -29 15 c-33 17 -32 22 11 100 45
81 151 207 230 275 87 75 220 163 307 202 187 85 438 114 638 74z m-91 -106
c292 -41 510 -165 684 -388 87 -113 159 -274 187 -420 30 -159 8 -354 -61
-527 -113 -286 -330 -480 -650 -581 -82 -26 -104 -28 -240 -29 -114 0 -168 4
-225 19 -79 19 -275 108 -322 146 -29 22 -37 61 -18 90 8 12 14 12 45 -3 24
-11 61 -17 112 -17 68 0 83 3 128 31 155 94 180 305 53 445 -49 54 -100 76
-193 83 -44 3 -87 12 -95 19 -8 6 -26 21 -40 31 -22 17 -23 21 -10 34 8 7 38
22 65 32 106 38 191 170 183 285 -8 107 -79 214 -170 259 -86 41 -210 21 -299
-50 -46 -36 -99 -134 -99 -184 0 -23 -3 -27 -10 -15 -5 8 -10 24 -10 35 0 12
-9 38 -20 60 -19 38 -19 38 0 83 36 81 119 207 168 254 81 79 193 157 297 207
205 100 352 127 540 101z m-3785 -117 c96 -25 177 -47 179 -49 4 -4 -4 -12
-131 -122 -59 -50 -113 -92 -120 -92 -25 0 -372 90 -381 99 -4 4 45 56 110
114 100 91 121 106 143 101 14 -3 104 -26 200 -51z m1040 -226 c0 -12 -51
-277 -65 -333 -3 -15 -40 -36 -150 -83 -80 -35 -148 -61 -150 -59 -8 8 67 352
79 365 10 11 263 122 279 123 4 0 7 -6 7 -13z m736 -26 c46 -21 98 -72 115
-114 l12 -28 20 33 c25 42 34 48 78 48 30 0 43 -7 73 -40 20 -22 38 -40 41
-40 2 0 12 14 20 30 25 48 70 70 140 69 35 0 74 -7 95 -17 41 -20 72 -76 74
-131 l1 -37 51 4 c132 11 223 -76 210 -200 -3 -31 -3 -64 0 -73 7 -17 39 -20
49 -5 8 13 90 13 140 -1 53 -15 110 -73 125 -129 12 -45 10 -60 -26 -155 -2
-5 10 -11 27 -12 50 -4 112 -44 133 -86 14 -30 16 -41 7 -50 -9 -9 -266 -12
-1029 -12 l-1017 0 4 25 c9 68 59 124 121 137 24 4 28 8 19 19 -18 22 -96 17
-135 -7 -34 -21 -84 -93 -84 -121 0 -22 -44 -38 -103 -38 -175 0 -217 213 -64
327 29 22 40 24 112 21 l80 -3 -3 41 c-2 28 3 53 18 80 80 144 234 177 332 72
25 -27 28 -35 19 -55 -15 -34 -14 -88 3 -102 12 -10 16 -6 25 22 22 65 84 107
160 107 59 0 71 13 41 45 -16 17 -38 26 -75 30 -59 8 -85 29 -104 84 -33 99
20 211 124 265 40 21 121 20 171 -3z m-2396 -220 c241 -72 225 -56 134 -131
-169 -142 -149 -130 -197 -115 -23 7 -91 27 -152 44 -60 17 -128 36 -149 44
l-40 14 119 96 c66 53 119 97 120 97 0 0 75 -22 165 -49z m996 -48 c-7 -22
-42 -183 -62 -282 -8 -41 -15 -75 -17 -76 -13 -11 -287 -121 -287 -116 0 3 17
87 37 185 l37 179 46 20 c25 11 88 39 140 63 107 49 114 51 106 27z m-651
-285 c-2 -13 -19 -93 -36 -178 -18 -85 -37 -160 -43 -166 -11 -12 -262 -124
-276 -124 -4 0 1 30 10 68 9 37 27 120 40 184 l23 116 136 61 c75 33 139 60
144 60 4 1 5 -9 2 -21z m-837 -116 c40 -51 -29 -120 -80 -79 -30 23 -31 55 -3
82 27 28 59 27 83 -3z m1847 -262 c10 -11 16 -22 14 -24 -6 -6 -82 -39 -189
-83 -47 -19 -148 -63 -225 -98 -77 -35 -230 -102 -340 -149 -110 -48 -216 -94
-235 -103 -19 -8 -84 -37 -145 -63 -60 -26 -130 -56 -155 -68 -79 -35 -173
-72 -186 -72 -16 0 -29 39 -17 50 4 4 40 20 78 35 39 14 95 37 126 51 31 13
59 24 63 24 3 0 38 15 78 34 114 52 343 154 458 203 58 25 134 58 170 75 114
53 471 207 481 208 3 0 14 -9 24 -20z m-1677 -105 c23 -30 18 -69 -11 -90 -29
-20 -53 -19 -77 5 -27 27 -25 56 5 85 31 32 58 32 83 0z m2394 -255 c9 -135
17 -274 19 -309 l2 -65 -113 -38 c-62 -21 -115 -36 -118 -34 -4 5 -82 639 -82
674 0 23 0 23 138 20 l137 -3 17 -245z m618 72 c0 -99 -3 -214 -6 -256 l-7
-77 -72 7 c-42 4 -93 2 -125 -5 -29 -6 -54 -10 -56 -9 -1 2 -6 119 -10 261
l-7 257 141 0 142 0 0 -178z m680 150 c0 -26 -44 -387 -71 -574 -7 -49 -16
-88 -22 -88 -5 0 -68 18 -138 40 l-129 41 0 32 c0 30 22 335 36 500 l7 77 158
0 159 0 0 -28z m-1950 -207 c0 -24 -36 -45 -165 -97 -27 -11 -99 -41 -160 -67
-60 -27 -182 -79 -270 -116 -88 -37 -180 -76 -205 -87 -25 -12 -61 -27 -80
-35 -19 -9 -80 -35 -135 -60 -119 -53 -119 -53 -215 -93 -41 -18 -94 -41 -118
-52 -24 -11 -44 -19 -46 -17 -1 2 -7 15 -12 29 -11 24 -9 25 150 93 89 37 190
82 226 99 36 16 81 36 100 43 19 7 71 30 115 50 44 20 143 63 220 95 77 32
165 69 195 83 30 13 93 41 140 61 47 21 94 41 105 46 152 67 155 67 155 25z
m4009 -67 l24 -17 -73 -83 c-41 -46 -81 -91 -90 -101 -16 -17 -19 -16 -68 17
-28 18 -56 36 -62 38 -6 2 12 28 40 58 28 30 69 81 91 113 l40 58 37 -33 c20
-18 48 -41 61 -50z m227 -140 c30 -16 54 -33 54 -38 0 -4 -19 -30 -43 -56 -23
-27 -59 -70 -80 -96 -21 -27 -43 -48 -48 -48 -5 0 -45 23 -89 51 l-79 51 82
97 82 98 34 -14 c19 -8 58 -28 87 -45z m246 -104 c40 -15 95 -38 122 -51 l49
-25 -40 -41 c-21 -23 -66 -73 -99 -112 -99 -117 -107 -125 -120 -125 -7 0 -21
10 -31 23 -10 12 -48 47 -85 77 -59 46 -66 56 -55 69 8 9 42 52 78 96 82 101
93 113 101 114 4 1 40 -11 80 -25z m-3258 -204 c29 -28 25 -78 -8 -107 -35
-30 -71 -29 -101 2 -26 26 -32 63 -14 96 22 42 85 46 123 9z m-413 -89 c17
-13 23 -29 23 -56 0 -71 -90 -104 -133 -49 -28 35 -26 69 4 99 29 30 73 33
106 6z m815 11 c16 -11 34 -48 34 -72 0 -58 -96 -93 -135 -50 -27 29 -24 88 4
112 23 18 77 24 97 10z m-1208 -148 c29 -33 28 -69 -3 -99 -34 -35 -86 -34
-114 1 -29 37 -26 70 9 106 36 35 71 33 108 -8z m1623 -11 c15 -39 11 -62 -17
-90 -21 -21 -32 -24 -62 -19 -45 7 -62 28 -62 76 0 57 45 86 103 67 16 -5 33
-20 38 -34z m364 -98 c30 -29 33 -74 6 -106 -14 -18 -29 -24 -61 -24 -50 0
-70 22 -70 76 0 70 77 103 125 54z m-2371 -7 c39 -56 6 -122 -61 -122 -62 0
-95 69 -57 122 12 17 25 22 59 22 34 0 47 -5 59 -22z m1430 -64 c133 -41 315
-99 406 -129 91 -30 280 -90 420 -135 140 -45 323 -103 405 -130 83 -27 251
-81 375 -120 298 -94 858 -276 940 -304 108 -37 100 24 100 -789 0 -674 -1
-699 -20 -736 -13 -26 -30 -43 -52 -51 -18 -6 -224 -76 -458 -155 -234 -79
-537 -182 -675 -229 l-249 -86 -66 28 -65 27 -469 3 c-447 3 -472 2 -536 -17
-46 -14 -81 -34 -114 -62 -86 -76 -106 -146 -106 -371 l0 -151 -107 6 c-60 4
-121 11 -138 15 l-30 8 -5 165 c-5 141 -8 171 -27 212 -37 80 -78 123 -151
159 l-67 33 -490 0 -490 0 -59 -28 -58 -27 -62 19 c-33 11 -167 56 -296 101
-129 45 -419 144 -645 221 -432 147 -438 150 -450 214 -3 17 -5 346 -3 732 l3
703 25 24 c17 16 85 43 215 84 438 139 627 199 930 297 176 57 455 147 620
200 165 53 381 123 480 155 352 115 550 178 570 183 11 2 51 5 89 6 60 1 101
-9 310 -75z m-1819 -49 c50 -49 15 -135 -54 -135 -36 0 -71 40 -71 82 0 36 40
78 75 78 14 0 37 -11 50 -25z m3142 10 c24 -17 38 -64 28 -95 -4 -11 -20 -27
-36 -36 -63 -32 -134 25 -110 88 19 52 76 72 118 43z m-3523 -136 c46 -36 32
-108 -24 -128 -70 -24 -129 44 -95 110 23 44 75 52 119 18z m3896 6 c32 -17
46 -51 36 -90 -6 -24 -51 -55 -79 -55 -8 0 -26 9 -41 21 -20 15 -26 29 -26 57
0 42 6 54 35 70 27 15 41 15 75 -3z m-4260 -145 c28 -53 -8 -120 -64 -120 -40
0 -76 35 -76 74 0 39 8 51 44 70 33 17 80 5 96 -24z m4655 5 c49 -48 16 -125
-54 -125 -48 0 -75 28 -75 77 0 68 80 98 129 48z m-5072 -96 c26 -12 47 -47
47 -78 0 -34 -39 -71 -74 -71 -99 0 -103 148 -4 159 4 1 18 -4 31 -10z m5457
-19 c68 -68 -37 -174 -107 -108 -28 26 -31 82 -6 110 23 25 87 24 113 -2z
m-5841 -125 c74 -38 49 -145 -35 -145 -21 0 -42 8 -54 20 -39 39 -17 119 35
133 11 2 21 5 23 6 2 0 16 -6 31 -14z m6221 -25 c36 -36 25 -102 -20 -125 -76
-39 -146 60 -85 120 30 31 77 33 105 5z m-6317 -402 c40 -48 5 -128 -58 -128
-40 0 -63 17 -74 55 -22 81 78 137 132 73z m6423 14 c16 -10 34 -48 34 -70 0
-35 -38 -72 -75 -72 -47 0 -79 29 -79 73 0 49 27 77 73 77 20 0 41 -4 47 -8z
m-6429 -444 c48 -45 18 -128 -46 -128 -43 0 -60 9 -76 41 -17 31 -7 74 22 97
26 19 74 14 100 -10z m6440 -4 c20 -20 24 -31 19 -57 -9 -46 -33 -67 -77 -67
-70 0 -103 77 -54 125 32 33 78 33 112 -1z m-6442 -409 c70 -69 -25 -177 -99
-113 -38 32 -39 83 -2 115 35 30 71 29 101 -2z m6440 0 c33 -33 33 -78 -1
-112 -21 -21 -32 -24 -62 -19 -45 7 -62 28 -62 75 0 41 7 53 35 69 32 18 64
14 90 -13z m-6432 -437 c40 -47 5 -128 -57 -128 -59 0 -95 66 -65 121 22 42
89 46 122 7z m6441 0 c37 -52 3 -128 -56 -128 -64 0 -102 86 -58 130 29 29 94
27 114 -2z m-6201 -339 c57 -69 -35 -165 -106 -109 -21 17 -27 30 -27 60 0 73
86 105 133 49z m5961 9 c39 -35 42 -69 11 -106 -34 -40 -75 -43 -110 -7 -27
26 -31 51 -14 89 22 47 75 58 113 24z m-5579 -143 c16 -15 25 -36 25 -55 0
-38 -39 -80 -73 -80 -13 0 -36 9 -51 21 -41 33 -33 113 14 132 32 12 62 6 85
-18z m5189 4 c20 -16 26 -29 26 -59 0 -44 -35 -80 -77 -80 -34 0 -73 42 -73
80 0 38 39 80 73 80 13 0 36 -9 51 -21z m-4791 -150 c52 -63 -30 -159 -99
-115 -38 25 -50 59 -34 96 7 18 23 36 34 41 31 13 78 2 99 -22z m4401 10 c57
-45 10 -152 -58 -135 -65 16 -87 86 -41 131 30 31 64 32 99 4z m-4019 -144
c49 -48 16 -125 -54 -125 -48 0 -75 28 -75 77 0 68 80 98 129 48z m3634 15
c10 -5 24 -22 30 -39 33 -77 -76 -141 -128 -75 -12 15 -21 37 -21 49 0 36 37
75 71 75 17 0 38 -4 48 -10z m-1841 -631 c56 -19 66 -103 16 -136 -30 -19 -90
-10 -104 17 -25 47 -6 106 40 123 8 3 15 6 16 6 1 1 15 -4 32 -10z m40 -1221
l3 -68 -78 0 -78 0 2 67 c1 38 2 69 3 71 0 2 33 2 73 0 l72 -3 3 -67z"/>
<path d="M6781 8258 c-76 -30 -145 -101 -165 -168 -20 -67 -20 -108 0 -176 21
-73 69 -133 134 -168 46 -25 65 -29 127 -29 267 2 388 305 193 487 -80 74
-186 94 -289 54z"/>
<path d="M7312 7764 c-28 -14 -72 -48 -96 -75 -124 -138 -65 -369 114 -450 38
-17 56 -20 114 -14 88 8 151 40 200 99 50 62 68 110 68 181 -1 70 -20 121 -71
189 -71 94 -217 126 -329 70z"/>
<path d="M6760 7575 c-62 -28 -110 -101 -110 -167 0 -43 34 -107 72 -137 44
-35 130 -41 185 -12 120 61 134 216 27 297 -44 34 -121 42 -174 19z m139 -91
c75 -62 8 -190 -88 -169 -41 9 -81 58 -81 99 0 84 102 127 169 70z"/>
<path d="M7036 7135 c-118 -48 -186 -146 -186 -269 0 -124 82 -239 195 -272
102 -29 210 -6 278 59 95 93 129 236 79 337 -73 152 -214 208 -366 145z"/>
<path d="M5112 7756 c-49 -17 -95 -65 -123 -128 -19 -45 -32 -59 -64 -75 -52
-25 -105 -101 -105 -152 1 -81 71 -171 133 -171 19 0 44 10 62 25 l30 24 -33
1 c-69 0 -122 48 -122 110 0 28 8 44 38 73 20 20 52 40 71 43 18 4 34 12 36
18 2 6 8 32 15 57 24 93 113 148 182 113 53 -26 78 -55 90 -102 12 -47 28 -51
39 -9 9 35 -7 96 -34 126 -49 54 -142 74 -215 47z"/>
<path d="M5536 7503 c-2 -2 14 -21 35 -43 48 -51 58 -91 29 -120 -26 -26 -50
-80 -50 -112 0 -21 1 -21 33 8 70 65 115 78 180 50 35 -14 87 -69 87 -91 0 -7
9 -15 21 -18 18 -5 20 -2 14 26 -21 105 -63 152 -144 163 -47 6 -50 8 -66 50
-20 53 -70 95 -109 92 -15 -1 -28 -4 -30 -5z"/>
<path d="M3086 5082 c-12 -3 -15 -10 -10 -25 3 -12 37 -116 75 -232 37 -115
100 -310 140 -433 l71 -223 116 3 116 3 147 449 c82 247 147 452 145 455 -2 3
-48 4 -102 1 l-98 -5 -101 -337 c-55 -186 -102 -338 -106 -338 -3 0 -26 71
-53 158 -26 86 -60 200 -76 252 -16 52 -41 134 -56 182 l-26 87 -83 3 c-45 2
-90 2 -99 0z"/>
<path d="M4798 5083 l-88 -4 0 -454 0 -455 260 0 260 0 0 83 0 82 -165 -3
-165 -3 0 380 c0 210 -3 380 -7 379 -5 -1 -47 -4 -95 -5z"/>
<path d="M5164 5083 l-41 -4 93 -287 c51 -158 117 -361 147 -452 l53 -165 113
0 112 0 115 350 c63 193 130 396 148 453 l34 102 -98 0 c-109 0 -103 4 -129
-90 -5 -19 -41 -140 -80 -269 -40 -129 -77 -255 -83 -279 l-11 -45 -17 49
c-10 27 -57 180 -106 339 -48 160 -88 290 -88 291 -3 4 -129 9 -162 7z"/>
<path d="M4000 4625 l0 -455 270 0 270 0 0 83 0 82 -175 -3 -175 -3 0 111 0
110 150 0 150 0 0 85 0 85 -150 0 -150 0 0 100 0 100 169 0 c101 0 171 4 173
10 2 5 2 41 0 80 l-4 70 -264 0 -264 0 0 -455z"/>
<path d="M6020 4625 l0 -455 273 2 272 3 2 78 2 77 -179 0 -180 0 0 110 0 110
150 0 150 0 0 85 0 85 -150 0 -150 0 0 100 0 100 165 0 165 0 0 80 0 80 -260
0 -260 0 0 -455z"/>
<path d="M6628 5005 l-3 -75 118 0 117 0 0 -380 0 -381 93 3 92 3 0 378 0 377
113 0 112 0 0 75 0 75 -319 0 -319 0 -4 -75z"/>
<path d="M3350 3962 c-111 -37 -189 -112 -231 -221 -56 -149 -20 -327 90 -436
123 -124 321 -147 473 -56 34 21 63 42 65 47 2 5 -15 29 -36 54 l-39 45 -42
-24 c-29 -16 -65 -25 -111 -29 -60 -4 -75 -1 -125 23 -131 64 -171 241 -85
377 59 93 200 123 311 65 48 -25 55 -26 63 -12 5 9 22 32 39 51 l30 34 -23 20
c-13 11 -49 32 -79 46 -74 36 -217 44 -300 16z"/>
<path d="M3880 3590 l0 -380 80 0 80 0 0 380 0 380 -80 0 -80 0 0 -380z"/>
<path d="M4220 3590 l0 -380 80 0 80 0 2 245 3 246 70 -110 c39 -61 108 -171
155 -245 l85 -135 88 -1 87 0 0 380 0 380 -80 0 -80 0 -1 -227 c-1 -126 -1
-234 0 -240 6 -42 -31 10 -238 344 l-76 122 -87 0 -88 1 0 -380z"/>
<path d="M5040 3590 l0 -380 235 0 235 0 0 73 0 72 -157 0 -158 0 1 85 0 85
132 -1 132 0 0 73 0 73 -132 0 -133 0 -1 80 0 80 153 0 153 0 0 70 0 70 -230
0 -230 0 0 -380z"/>
<path d="M5647 3668 c-4 -167 -10 -338 -13 -380 l-7 -78 81 0 80 0 7 158 c5
129 8 201 15 334 0 4 31 -53 70 -128 137 -266 153 -283 199 -201 12 23 60 110
105 192 l81 150 6 -155 c4 -85 7 -199 8 -253 l1 -98 83 3 82 3 -2 30 c-1 17
-7 99 -12 183 -6 85 -11 238 -11 341 0 103 -2 190 -4 192 -2 2 -47 3 -100 1
-87 -3 -95 -5 -103 -25 -11 -31 -173 -337 -178 -337 -2 0 -25 39 -51 88 -26
48 -71 131 -101 185 l-54 97 -88 0 -88 0 -6 -302z"/>
<path d="M6806 3938 c-36 -86 -246 -699 -246 -716 0 -8 27 -12 84 -12 l83 0
23 80 23 80 137 0 137 0 24 -80 23 -80 83 0 83 0 -7 33 c-11 55 -78 249 -225
645 l-31 82 -89 0 -89 0 -13 -32z m149 -308 c23 -60 40 -112 37 -115 -3 -3
-42 -5 -88 -5 l-82 0 41 119 c23 66 44 117 46 115 3 -2 23 -54 46 -114z"/>
</g>
</svg>
