<svg xmlns="http://www.w3.org/2000/svg" viewBox="0 0 484.4 119.6"><style>.st0{fill:#253b80}.st1{fill:#179bd7}.st2{fill:#222d65}</style><path class="st0" d="M181.7 27h-26.8c-1.8 0-3.4 1.3-3.7 3.2l-10.8 68.6c-.2 1.3.9 2.6 2.2 2.6h12.7c1.8 0 3.4-1.3 3.7-3.2l2.9-18.5c.2-1.8 1.8-3.2 3.7-3.2h8.4c17.6 0 27.8-8.6 30.4-25.4 1.2-7.3 0-13.2-3.4-17.2-3.5-4.6-10.4-6.9-19.3-6.9zm3.1 25c-1.5 9.5-8.8 9.5-15.9 9.5h-4l2.8-18c.1-1.1 1.1-1.8 2.2-1.8h1.8c4.9 0 9.4 0 11.7 2.8 1.5 1.7 2 4.1 1.4 7.5zm76.9-.3h-12.8c-1.1 0-2.1.9-2.2 1.8l-.7 3.6-.9-1.3c-2.8-4-8.9-5.4-15.2-5.4-14.2 0-26.3 10.8-28.6 25.8-1.2 7.5.5 14.7 4.8 19.7 3.9 4.6 9.5 6.5 16.1 6.5 11.4 0 17.7-7.3 17.7-7.3l-.6 3.5c-.2 1.3.9 2.6 2.2 2.6H253c1.8 0 3.4-1.3 3.7-3.2l7-43.9c.4-1.2-.7-2.4-2-2.4zm-17.9 24.9c-1.2 7.3-7.1 12.2-14.4 12.2-3.7 0-6.7-1.2-8.6-3.4s-2.6-5.4-2-9c1.1-7.2 7.1-12.3 14.3-12.3 3.7 0 6.6 1.2 8.6 3.5 1.9 2.3 2.7 5.5 2.1 9zm86.1-24.9h-12.8c-1.2 0-2.3.6-3.1 1.6l-17.8 26.2-7.6-25.2c-.5-1.6-2-2.7-3.5-2.7h-12.6c-1.6 0-2.6 1.5-2.1 2.9l14.2 41.6-13.4 19c-1.1 1.5 0 3.5 1.8 3.5h12.8c1.2 0 2.3-.6 3.1-1.6l42.8-61.7c1-1.5 0-3.6-1.8-3.6z"/><path class="st1" d="M372.6 27h-26.8c-1.8 0-3.4 1.3-3.7 3.2l-10.8 68.6c-.2 1.3.9 2.6 2.2 2.6h13.7c1.2 0 2.3-1 2.6-2.2l3.1-19.4c.2-1.8 1.8-3.2 3.7-3.2h8.4c17.6 0 27.8-8.6 30.4-25.4 1.2-7.3 0-13.2-3.4-17.2-3.8-4.7-10.5-7-19.4-7zm3 25c-1.5 9.5-8.8 9.5-15.9 9.5h-4l2.8-18c.1-1.1 1.1-1.8 2.2-1.8h1.8c4.8 0 9.4 0 11.7 2.8 1.5 1.7 1.9 4.1 1.4 7.5zm76.9-.3h-12.8c-1.1 0-2.1.9-2.2 1.8l-.6 3.5-.9-1.3c-2.8-4-8.9-5.4-15.2-5.4-14.2 0-26.3 10.8-28.6 25.8-1.2 7.5.5 14.7 4.8 19.7 3.9 4.6 9.5 6.5 16.1 6.5 11.4 0 17.7-7.3 17.7-7.3l-.6 3.5c-.2 1.3.9 2.6 2.2 2.6H444c1.8 0 3.4-1.3 3.7-3.2l7-43.9c.1-1.1-.8-2.3-2.2-2.3zm-17.8 24.9c-1.2 7.3-7.1 12.2-14.4 12.2-3.7 0-6.7-1.2-8.6-3.4s-2.6-5.4-2-9c1.2-7.2 7.1-12.3 14.3-12.3 3.7 0 6.6 1.2 8.6 3.5 1.8 2.3 2.5 5.5 2.1 9zm32.8-47.8l-11 69.8c-.2 1.3.9 2.6 2.2 2.6h11c1.8 0 3.4-1.3 3.7-3.2l10.9-68.6c.2-1.3-.9-2.6-2.2-2.6h-12.3c-1.2.2-2.1.9-2.3 2z"/><path class="st0" d="M29.4 114.6l2.1-13-4.5-.1H5.2L20.4 5.7c0-.2.2-.6.4-.7.2-.2.5-.2.9-.2h36.7c12.2 0 20.5 2.6 24.9 7.6 2.1 2.3 3.4 4.8 4 7.5.6 2.8.7 6.2 0 10.4v2.8l2.1 1.2c1.7 1 3.1 2 4.2 3.2 1.7 2 2.9 4.5 3.4 7.6s.4 6.8-.5 11c-1 4.8-2.4 9-4.5 12.5-1.8 3.2-4.3 5.7-7.1 7.8-2.7 2-6 3.4-9.7 4.3-3.5 1-7.6 1.3-12 1.3h-2.8c-2.1 0-4 .7-5.6 2.1-1.6 1.3-2.6 3.2-2.9 5.1l-.2 1.2-3.7 22.9-.1.9c0 .2-.1.4-.2.5-.1.1-.2.1-.4.1-.2-.2-17.9-.2-17.9-.2z"/><path class="st1" d="M91.1 30.5c-.1.7-.2 1.5-.4 2.2-4.8 24.8-21.3 33.4-42.5 33.4H37.5c-2.6 0-4.8 1.8-5.1 4.4l-5.5 35-1.6 9.9c-.2 1.7 1 3.2 2.7 3.2h19c2.2 0 4.2-1.6 4.5-3.9l.2-1 3.5-22.9.2-1.2c.4-2.2 2.3-3.9 4.5-3.9h2.8c18.5 0 33-7.5 37.2-29.2 1.7-9 .9-16.6-3.8-22-1.2-1.5-2.9-2.9-5-4z"/><path class="st2" d="M86.1 28.6c-.7-.2-1.5-.4-2.3-.6-.7-.1-1.6-.4-2.4-.5-2.9-.5-6.1-.7-9.5-.7H43.1c-.7 0-1.3.1-2 .5-1.3.6-2.3 1.8-2.6 3.4l-6.1 38.8-.1 1.1c.4-2.6 2.6-4.4 5.1-4.4h10.8c21.1 0 37.7-8.6 42.5-33.4.1-.7.2-1.5.4-2.2-1.2-.6-2.6-1.2-4-1.7-.3-.1-.6-.2-1-.3z"/><path class="st0" d="M38.7 30.7c.2-1.6 1.2-2.8 2.6-3.4.6-.2 1.2-.5 2-.5H72c3.4 0 6.6.2 9.5.7.9.1 1.6.2 2.4.5.7.1 1.6.4 2.3.6.4.1.7.2 1.1.4 1.5.5 2.8 1 4 1.7 1.5-9.2 0-15.4-5-21C80.8 3.5 70.9.8 58.3.8H21.7c-2.6 0-4.8 1.8-5.1 4.4L1 101.8c-.2 2 1.2 3.7 3.1 3.7h22.6l5.7-36.1 6.3-38.7z"/></svg>